<svg xmlns="http://www.w3.org/2000/svg" width="1200" height="1600" viewBox="0 0 1200 1600" role="img" aria-labelledby="title desc">
  <title id="title">Tencent QClaw Beta</title>
  <desc id="desc">A green editorial cover for a Xiaohongshu note about Tencent QClaw.</desc>
  <defs>
    <linearGradient id="bg" x1="0" y1="0" x2="1" y2="1"><stop stop-color="#e7fff5"/><stop offset="1" stop-color="#b7f6dc"/></linearGradient>
    <linearGradient id="claw" x1="0" y1="0" x2="1" y2="1"><stop stop-color="#178d67"/><stop offset="1" stop-color="#2bbc8a"/></linearGradient>
  </defs>
  <rect width="1200" height="1600" fill="url(#bg)"/>
  <path d="M0 0h1200v28H0zM0 1572h1200v28H0z" fill="#111b18"/>
  <text x="90" y="130" fill="#178d67" font-family="Arial, sans-serif" font-size="30" font-weight="700" letter-spacing="7">EARLY ACCESS / AI ASSISTANT</text>
  <text x="84" y="345" fill="#111b18" font-family="Arial Black, Arial, sans-serif" font-size="142" font-weight="900">TENCENT</text>
  <text x="84" y="500" fill="#178d67" font-family="Arial Black, Arial, sans-serif" font-size="172" font-weight="900">QCLAW</text>
  <text x="90" y="610" fill="#111b18" font-family="Arial, sans-serif" font-size="56" font-weight="700">BETA TEST</text>
  <path d="M90 660h610" stroke="#178d67" stroke-width="12"/>
  <text x="90" y="790" fill="#263c34" font-family="Arial, sans-serif" font-size="58" font-weight="700">Surprisingly friendly</text>
  <text x="90" y="870" fill="#263c34" font-family="Arial, sans-serif" font-size="58" font-weight="700">for everyday users.</text>
  <g transform="translate(790 900)">
    <circle cx="120" cy="120" r="108" fill="#111b18" opacity=".92"/>
    <path d="M80 154c-63-44-65-124-15-154 19 69 53 85 90 62-7 55-31 90-75 92z" fill="url(#claw)"/>
    <path d="M146 157c60-47 58-126 6-154-16 69-49 87-87 66 10 54 36 88 81 88z" fill="#54e6b4"/>
    <circle cx="112" cy="104" r="16" fill="#e7fff5"/>
  </g>
  <text x="90" y="1465" fill="#178d67" font-family="Arial, sans-serif" font-size="30" font-weight="700" letter-spacing="5">AI · PRODUCT · USER EXPERIENCE</text>
</svg>
